<?xml version="1.0" encoding="UTF-8"?>
<svg id="Layer_1" xmlns="http://www.w3.org/2000/svg" viewBox="0 0 773.73 212.36">
  <defs>
    <style>
      .cls-1 {
        fill: #101820;
      }
    </style>
  </defs>
  <g>
    <polygon class="cls-1" points="709.5 162.55 713.46 162.55 713.46 171.88 715.35 171.88 715.35 162.55 719.31 162.55 719.31 161.01 709.5 161.01 709.5 162.55"/>
    <polygon class="cls-1" points="733.64 171.88 733.61 161.01 732.06 161.01 727.31 168.44 722.46 161.01 720.91 161.01 720.91 171.88 722.72 171.88 722.72 164.39 726.84 170.6 727.71 170.6 731.8 164.25 731.83 171.88 733.64 171.88"/>
  </g>
  <path class="cls-1" d="M648.87,75.16c-15.85.65-28.74,6.11-37.36,15.85-7.53,8.52-11.77,20.34-12.02,33.43-.02.42-.02.85-.02,1.27,0,.45,0,.89.02,1.34.37,24.14,11.47,40.81,30.33,45.06,3.13.72,6.48,1.09,10.03,1.09h2.19c8.42-.22,16.04-4.72,22.68-10.8,2.88-2.66,5.56-5.84,8-9.51v19.22h31.89v-96.95h-55.74ZM668.66,143.19c-3.75,6.51-10.46,14.26-20.96,14.26-9.44,0-13.26-10.21-14.8-19.47-.84-5.14-.99-10.01-.99-12.69,0-2.38.17-7.97,1.56-14.31,1.14-5.27,3.1-11.05,6.53-15.97,4.57-6.61,11.75-11.62,22.95-11.62h9.86v43.59c0,.85-.02,1.67-.1,2.48-.32,4.92-1.69,9.51-4.05,13.74h0Z"/>
  <g>
    <path class="cls-1" d="M401.01,91.01c-7.79,8.79-12.09,21.12-12.09,34.71,0,28.91,15.13,47.47,40.48,47.47h2.18c8.45-.21,16.1-4.7,22.73-10.78,2.95-2.7,5.66-5.94,8.11-9.67v19.37h31.88v-97.02h-52.59c-17.4,0-31.48,5.51-40.71,15.92h0ZM421.43,125.29c0-7,1.5-41.91,31.12-41.91h9.87v43.61c0,5.84-1.39,11.29-4.14,16.19-3.78,6.51-10.49,14.26-21.03,14.26-14.68,0-15.82-24.61-15.82-32.15h0Z"/>
    <path class="cls-1" d="M572.85,75.16s3.71,9.93,4.35,11.59c2.32,6.04,4.28,11.12,5.1,16.16.46,2.81.12,5.69-.97,8.33l-15.71,37.99-32.44-74.06h-34.91l42.26,96.94h26.26l42.14-96.94h-36.08Z"/>
    <path class="cls-1" d="M249.36,75.16v50.54c0,5.22-1.42,10.38-4.07,14.9-3.4,5.66-10.43,15.13-19.25,15.13-13.64,0-16.49-15.62-16.49-28.76v-51.81h-33.43.03v56.88c1.47,17.88,9.24,31.08,22,37.22.4.22.77.4,1.19.57,4.69,2.21,10.06,3.45,16.07,3.45.67,0,1.32-.05,1.94-.1h1.19c8.44-.22,16.09-4.72,22.73-10.8,2.96-2.68,5.66-5.91,8.1-9.64v19.35h31.89v-96.93h-31.9Z"/>
    <path class="cls-1" d="M95.52,172.11v-50.84c0-5.22,1.42-10.38,4.07-14.9,3.4-5.66,10.43-15.13,19.25-15.13,13.64,0,16.49,15.62,16.49,28.76v52.11h33.43l-.03-2.63v-54.54c-1.47-17.88-9.24-31.08-22-37.22-.4-.22-.77-.4-1.19-.57-4.69-2.21-10.06-3.45-16.07-3.45-.67,0-1.32.05-1.94.1h-1.19c-8.44.22-16.09,4.72-22.73,10.8-2.96,2.68-5.66,5.91-8.1,9.64v-19.05h-31.88v96.94h31.89v-.02Z"/>
    <path class="cls-1" d="M438.44,75.16c-15.85.65-28.74,6.11-37.36,15.85-7.53,8.52-11.77,20.34-12.02,33.43-.02.42-.02.85-.02,1.27,0,.45,0,.89.02,1.34.37,24.14,11.47,40.81,30.33,45.06,3.13.72,6.48,1.09,10.03,1.09h2.19c8.42-.22,16.04-4.72,22.68-10.8,2.88-2.66,5.56-5.84,8-9.51v19.22h31.89v-96.95h-55.74ZM458.24,143.19c-3.75,6.51-10.46,14.26-20.96,14.26-9.44,0-13.26-10.21-14.8-19.47-.84-5.14-.99-10.01-.99-12.69,0-2.38.17-7.97,1.56-14.31,1.14-5.27,3.1-11.05,6.53-15.97,4.57-6.61,11.75-11.62,22.95-11.62h9.86v43.59c0,.85-.02,1.67-.1,2.48-.32,4.92-1.69,9.51-4.05,13.74h0Z"/>
    <g>
      <path class="cls-1" d="M372.13,135.62c-.37-.64-3.55-5.71-11.29-7.64h-.02s-25.29-8.58-25.29-8.58l28.33-5.45c7.74-1.93,10.92-7,11.29-7.64l18.77-31.14h-37.46l-31.35,49.03V49.83l-31.88,31.88v90.39h31.88v-46.3c2.37,1.2,5.03,3.21,7.4,6.55l23.99,39.75h37.43l-21.8-36.49Z"/>
      <polygon class="cls-1" points="325.11 35.61 293.23 35.61 293.23 67.57 325.11 35.69 325.11 35.61"/>
    </g>
  </g>
</svg>
